<?xml version="1.0" encoding="UTF-8" standalone="no"?>
<svg
   xmlns:dc="http://purl.org/dc/elements/1.1/"
   xmlns:cc="http://creativecommons.org/ns#"
   xmlns:rdf="http://www.w3.org/1999/02/22-rdf-syntax-ns#"
   xmlns:svg="http://www.w3.org/2000/svg"
   xmlns="http://www.w3.org/2000/svg"
   xmlns:sodipodi="http://sodipodi.sourceforge.net/DTD/sodipodi-0.dtd"
   xmlns:inkscape="http://www.inkscape.org/namespaces/inkscape"
   width="210mm"
   height="297mm"
   viewBox="0 0 210 297"
   version="1.1"
   id="svg9222"
   inkscape:version="1.0.2 (e86c8708, 2021-01-15)"
   sodipodi:docname="logo_text.svg"
   inkscape:export-filename="/Users/richpauloo/Documents/GitHub/ogw/img/logo_text.png"
   inkscape:export-xdpi="400"
   inkscape:export-ydpi="400">
  <defs
     id="defs9216">
    <rect
       x="53.672619"
       y="57.452381"
       width="71.815476"
       height="40.821429"
       id="rect9226" />
    <clipPath
       clipPathUnits="userSpaceOnUse"
       id="clipPath10289">
      <g
         id="g10325"
         transform="matrix(0.20276725,0,0,0.15910394,-6.9701218,0.49570171)">
        <g
           id="g10293">
          <path
             id="path10291"
             d="M 164.984,330 C 228.408,330 280.007,278.418 280.007,215.016 280.007,110.002 179.853,8.656 175.589,4.393 172.776,1.58 168.961,0 164.982,0 161.003,0 157.189,1.581 154.377,4.394 150.114,8.657 49.992,110.003 49.992,215.016 49.992,278.418 101.578,330 164.984,330 Z" />
        </g>
        <g
           id="g10295" />
        <g
           id="g10297" />
        <g
           id="g10299" />
        <g
           id="g10301" />
        <g
           id="g10303" />
        <g
           id="g10305" />
        <g
           id="g10307" />
        <g
           id="g10309" />
        <g
           id="g10311" />
        <g
           id="g10313" />
        <g
           id="g10315" />
        <g
           id="g10317" />
        <g
           id="g10319" />
        <g
           id="g10321" />
        <g
           id="g10323" />
      </g>
    </clipPath>
    <clipPath
       clipPathUnits="userSpaceOnUse"
       id="clipPath10327">
      <g
         id="g10363"
         transform="matrix(0.20276725,0,0,0.15910394,-6.9701218,0.49570171)">
        <g
           id="g10331">
          <path
             id="path10329"
             d="M 164.984,330 C 228.408,330 280.007,278.418 280.007,215.016 280.007,110.002 179.853,8.656 175.589,4.393 172.776,1.58 168.961,0 164.982,0 161.003,0 157.189,1.581 154.377,4.394 150.114,8.657 49.992,110.003 49.992,215.016 49.992,278.418 101.578,330 164.984,330 Z" />
        </g>
        <g
           id="g10333" />
        <g
           id="g10335" />
        <g
           id="g10337" />
        <g
           id="g10339" />
        <g
           id="g10341" />
        <g
           id="g10343" />
        <g
           id="g10345" />
        <g
           id="g10347" />
        <g
           id="g10349" />
        <g
           id="g10351" />
        <g
           id="g10353" />
        <g
           id="g10355" />
        <g
           id="g10357" />
        <g
           id="g10359" />
        <g
           id="g10361" />
      </g>
    </clipPath>
    <clipPath
       clipPathUnits="userSpaceOnUse"
       id="clipPath10365">
      <g
         id="g10401"
         transform="matrix(0.20276725,0,0,0.15910394,-6.9701218,0.49570171)">
        <g
           id="g10369">
          <path
             id="path10367"
             d="M 164.984,330 C 228.408,330 280.007,278.418 280.007,215.016 280.007,110.002 179.853,8.656 175.589,4.393 172.776,1.58 168.961,0 164.982,0 161.003,0 157.189,1.581 154.377,4.394 150.114,8.657 49.992,110.003 49.992,215.016 49.992,278.418 101.578,330 164.984,330 Z" />
        </g>
        <g
           id="g10371" />
        <g
           id="g10373" />
        <g
           id="g10375" />
        <g
           id="g10377" />
        <g
           id="g10379" />
        <g
           id="g10381" />
        <g
           id="g10383" />
        <g
           id="g10385" />
        <g
           id="g10387" />
        <g
           id="g10389" />
        <g
           id="g10391" />
        <g
           id="g10393" />
        <g
           id="g10395" />
        <g
           id="g10397" />
        <g
           id="g10399" />
      </g>
    </clipPath>
    <clipPath
       clipPathUnits="userSpaceOnUse"
       id="clipPath10403">
      <g
         id="g10439"
         transform="matrix(0.20276725,0,0,0.15910394,-6.9701218,0.49570171)">
        <g
           id="g10407">
          <path
             id="path10405"
             d="M 164.984,330 C 228.408,330 280.007,278.418 280.007,215.016 280.007,110.002 179.853,8.656 175.589,4.393 172.776,1.58 168.961,0 164.982,0 161.003,0 157.189,1.581 154.377,4.394 150.114,8.657 49.992,110.003 49.992,215.016 49.992,278.418 101.578,330 164.984,330 Z" />
        </g>
        <g
           id="g10409" />
        <g
           id="g10411" />
        <g
           id="g10413" />
        <g
           id="g10415" />
        <g
           id="g10417" />
        <g
           id="g10419" />
        <g
           id="g10421" />
        <g
           id="g10423" />
        <g
           id="g10425" />
        <g
           id="g10427" />
        <g
           id="g10429" />
        <g
           id="g10431" />
        <g
           id="g10433" />
        <g
           id="g10435" />
        <g
           id="g10437" />
      </g>
    </clipPath>
    <clipPath
       clipPathUnits="userSpaceOnUse"
       id="clipPath10441">
      <g
         id="g10477"
         transform="matrix(0.20276725,0,0,0.15910394,-6.9701218,0.49570171)">
        <g
           id="g10445">
          <path
             id="path10443"
             d="M 164.984,330 C 228.408,330 280.007,278.418 280.007,215.016 280.007,110.002 179.853,8.656 175.589,4.393 172.776,1.58 168.961,0 164.982,0 161.003,0 157.189,1.581 154.377,4.394 150.114,8.657 49.992,110.003 49.992,215.016 49.992,278.418 101.578,330 164.984,330 Z" />
        </g>
        <g
           id="g10447" />
        <g
           id="g10449" />
        <g
           id="g10451" />
        <g
           id="g10453" />
        <g
           id="g10455" />
        <g
           id="g10457" />
        <g
           id="g10459" />
        <g
           id="g10461" />
        <g
           id="g10463" />
        <g
           id="g10465" />
        <g
           id="g10467" />
        <g
           id="g10469" />
        <g
           id="g10471" />
        <g
           id="g10473" />
        <g
           id="g10475" />
      </g>
    </clipPath>
  </defs>
  <sodipodi:namedview
     id="base"
     pagecolor="#ffffff"
     bordercolor="#666666"
     borderopacity="1.0"
     inkscape:pageopacity="0.0"
     inkscape:pageshadow="2"
     inkscape:zoom="1.979899"
     inkscape:cx="400.15178"
     inkscape:cy="230.90051"
     inkscape:document-units="mm"
     inkscape:current-layer="layer1"
     inkscape:document-rotation="0"
     showgrid="false"
     inkscape:object-paths="true"
     inkscape:window-width="1252"
     inkscape:window-height="943"
     inkscape:window-x="2274"
     inkscape:window-y="34"
     inkscape:window-maximized="0" />
  <metadata
     id="metadata9219">
    <rdf:RDF>
      <cc:Work
         rdf:about="">
        <dc:format>image/svg+xml</dc:format>
        <dc:type
           rdf:resource="http://purl.org/dc/dcmitype/StillImage" />
        <dc:title />
      </cc:Work>
    </rdf:RDF>
  </metadata>
  <g
     inkscape:label="Layer 1"
     inkscape:groupmode="layer"
     id="layer1">
    <text
       xml:space="preserve"
       id="text9224"
       style="font-style:normal;font-weight:normal;font-size:10.58329999999999949px;line-height:1.25;font-family:sans-serif;white-space:pre;shape-inside:url(#rect9226);fill:#f2f2f2;fill-opacity:1;stroke:none;"
       transform="translate(27.174362,-0.3674956)"
       inkscape:export-filename="/Users/richpauloo/Documents/GitHub/ogw/img/text9224.png"
       inkscape:export-xdpi="400"
       inkscape:export-ydpi="400"><tspan
         x="53.671875"
         y="68.565625"><tspan
           style="font-style:normal;font-variant:normal;font-weight:bold;font-stretch:normal;font-size:12.7px;font-family:'Apple SD Gothic Neo';-inkscape-font-specification:'Apple SD Gothic Neo, Bold';font-variant-ligatures:normal;font-variant-caps:normal;font-variant-numeric:normal;font-variant-east-asian:normal;fill:#f2f2f2">OGW</tspan></tspan></text>
    <g
       id="g9885"
       transform="matrix(0.15600508,0,0,0.17003043,67.761369,58.803663)">
      <path
         style="fill:#424a60"
         d="M 50.455,8 V 8 C 49.724,3.538 39.281,0 26.5,0 13.719,0 3.276,3.538 2.545,8 V 8 H 2.5 V 8.5 20 20.5 21 32 32.5 33 45 h 0.045 c 0.731,4.461 11.175,8 23.955,8 12.78,0 23.224,-3.539 23.955,-8 H 50.5 V 33 32.5 32 21 20.5 20 8.5 8 Z"
         id="path9791"
         clip-path="url(#clipPath10441)" />
      <g
         id="g9799"
         style="fill:#784421"
         clip-path="url(#clipPath10403)">
        <path
           style="fill:#784421"
           d="M 26.5,41 C 13.245,41 2.5,37.194 2.5,32.5 V 45 h 0.045 c 0.731,4.461 11.175,8 23.955,8 12.78,0 23.224,-3.539 23.955,-8 H 50.5 V 32.5 c 0,4.694 -10.745,8.5 -24,8.5 z"
           id="path9793" />
        <path
           style="fill:#784421"
           d="m 2.5,32 v 0.5 c 0,-0.168 0.018,-0.334 0.045,-0.5 z"
           id="path9795" />
        <path
           style="fill:#784421"
           d="m 50.455,32 c 0.027,0.166 0.045,0.332 0.045,0.5 V 32 Z"
           id="path9797" />
      </g>
      <g
         id="g9807"
         style="fill:#d38d5f"
         clip-path="url(#clipPath10365)">
        <path
           style="fill:#d38d5f"
           d="M 26.5,29 C 13.245,29 2.5,25.194 2.5,20.5 V 33 h 0.045 c 0.731,4.461 11.175,8 23.955,8 12.78,0 23.224,-3.539 23.955,-8 H 50.5 V 20.5 c 0,4.694 -10.745,8.5 -24,8.5 z"
           id="path9801" />
        <path
           style="fill:#d38d5f"
           d="m 2.5,20 v 0.5 c 0,-0.168 0.018,-0.334 0.045,-0.5 z"
           id="path9803" />
        <path
           style="fill:#d38d5f"
           d="m 50.455,20 c 0.027,0.166 0.045,0.332 0.045,0.5 V 20 Z"
           id="path9805" />
      </g>
      <ellipse
         style="fill:#7fabda"
         cx="26.5"
         cy="8.5"
         rx="24"
         ry="8.5"
         id="ellipse9809"
         clip-path="url(#clipPath10327)" />
      <g
         id="g9817"
         clip-path="url(#clipPath10289)">
        <path
           style="fill:#7383bf"
           d="M 26.5,17 C 13.245,17 2.5,13.194 2.5,8.5 V 21 h 0.045 c 0.731,4.461 11.175,8 23.955,8 12.78,0 23.224,-3.539 23.955,-8 H 50.5 V 8.5 c 0,4.694 -10.745,8.5 -24,8.5 z"
           id="path9811" />
        <path
           style="fill:#7383bf"
           d="M 2.5,8 V 8.5 C 2.5,8.332 2.518,8.166 2.545,8 Z"
           id="path9813" />
        <path
           style="fill:#7383bf"
           d="M 50.455,8 C 50.482,8.166 50.5,8.332 50.5,8.5 V 8 Z"
           id="path9815" />
      </g>
      <g
         id="g9819" />
      <g
         id="g9821" />
      <g
         id="g9823" />
      <g
         id="g9825" />
      <g
         id="g9827" />
      <g
         id="g9829" />
      <g
         id="g9831" />
      <g
         id="g9833" />
      <g
         id="g9835" />
      <g
         id="g9837" />
      <g
         id="g9839" />
      <g
         id="g9841" />
      <g
         id="g9843" />
      <g
         id="g9845" />
      <g
         id="g9847" />
    </g>
    <text
       xml:space="preserve"
       style="font-style:normal;font-weight:normal;font-size:10.5833px;line-height:1.25;font-family:sans-serif;fill:#000000;fill-opacity:1;stroke:none;stroke-width:0.264583"
       x="70.926651"
       y="73.265259"
       id="text10503"><tspan
         sodipodi:role="line"
         id="tspan10501"
         x="70.926651"
         y="73.265259"
         style="stroke-width:0.264583" /></text>
  </g>
</svg>
